<svg xmlns="http://www.w3.org/2000/svg" width="28" height="28" viewBox="0 0 28 28">
  <g id="Group_411" data-name="Group 411" transform="translate(-1852 -482)">
    <g id="Rectangle_638" data-name="Rectangle 638" transform="translate(1852 482)" fill="#fff" stroke="#1261a0" stroke-width="1">
      <rect width="28" height="28" rx="5" stroke="none"/>
      <rect x="0.5" y="0.5" width="27" height="27" rx="4.5" fill="none"/>
    </g>
    <g id="recycle-bin-line" transform="translate(1859.365 484.88)">
      <path id="Path_539" data-name="Path 539" d="M.707,1.314H5.544V.9a.313.313,0,0,1,0-.04A.9.9,0,0,1,5.81.264h0A.9.9,0,0,1,6.436,0h0V0H9.33a.35.35,0,0,1,.045,0,.9.9,0,0,1,.851.888v0h0v.419H15a.385.385,0,0,1,.058,0,.71.71,0,0,1,.44.2h0a.7.7,0,0,1,.2.489v0h0V3.592a.387.387,0,0,1-.387.387H.387A.387.387,0,0,1,0,3.592V2.019a.342.342,0,0,1,0-.046v0a.71.71,0,0,1,.206-.449h0A.7.7,0,0,1,.7,1.315h0v0ZM11.283,7.121h-.862v8.136h.862V7.121Zm-2.8,0H7.617v8.136H8.48V7.121Zm-2.8,0H4.813v8.136h.862V7.121Zm-4.1-2.542H14.247l.04,0h.018l.019,0h0l.024,0a.9.9,0,0,1,.518.248.806.806,0,0,1,.247.575.386.386,0,0,1,0,.041v.01l0,.022L14.038,16.992V17h0l0,.02-.007.041h0v0A1,1,0,0,1,14,17.2v0h0v0l0,.009v0a.928.928,0,0,1-.063.146.848.848,0,0,1-.755.462H2.63l-.036,0H2.588a.855.855,0,0,1-.187-.029.816.816,0,0,1-.174-.072h0a.921.921,0,0,1-.46-.728L.708,5.481l0-.018,0-.036V5.411h0a.806.806,0,0,1,.248-.576.9.9,0,0,1,.545-.25h.018l.044,0h.015v0Zm12.675.774H1.555a.114.114,0,0,0-.064.032.045.045,0,0,0-.015.026h0v.017L2.533,16.922h0v0a.148.148,0,0,0,.065.12h0l.012,0,.009,0H13.174A.092.092,0,0,0,13.249,17l.012-.029.008-.031,0-.02h0L14.343,5.426V5.41a.043.043,0,0,0-.015-.025.122.122,0,0,0-.065-.033Zm.016,0h0Zm.08.074h0Zm.768.055v0ZM5.931,2.087H.773V3.2H14.935V2.087H9.841A.386.386,0,0,1,9.454,1.7V.895h0A.127.127,0,0,0,9.418.81.126.126,0,0,0,9.342.773h-2.9A.125.125,0,0,0,6.356.81h0a.135.135,0,0,0-.038.073V1.7a.387.387,0,0,1-.387.387Z" transform="translate(-1.366 2.12)" fill="#1261a0" stroke="#1261a0" stroke-width="0.3"/>
    </g>
  </g>
</svg>
