<svg id="hashtag-sign-round" xmlns="http://www.w3.org/2000/svg" width="28.12" height="28.12" viewBox="0 0 28.12 28.12">
  <path id="Path_467" data-name="Path 467" d="M14.06,0A14.06,14.06,0,1,1,0,14.06,14.061,14.061,0,0,1,14.06,0Zm3.819,5.872a.764.764,0,1,1,1.5.311L18.5,10.389h1.941a.767.767,0,0,1,0,1.533H18.181l-.963,4.632h3.224a.767.767,0,0,1,0,1.533H16.9l-.865,4.16a.764.764,0,0,1-1.5-.311l.8-3.849H11.222l-.86,4.14a.764.764,0,0,1-1.5-.311l.8-3.829H7.68a.767.767,0,1,1,0-1.533h2.3l.959-4.632H7.675a.767.767,0,0,1,0-1.533h3.584L12.2,5.881a.764.764,0,0,1,1.5.311l-.874,4.2h4.119l.941-4.517ZM15.657,16.554l.963-4.632H12.5l-.963,4.632Z" fill="#1261a0" fill-rule="evenodd"/>
</svg>
