<svg xmlns="http://www.w3.org/2000/svg" width="34" height="34" viewBox="0 0 34 34">
  <g id="Group_17" data-name="Group 17" transform="translate(-1505 -482)">
    <g id="Group_16" data-name="Group 16" transform="translate(1505 482)">
      <g id="Rectangle_629" data-name="Rectangle 629" fill="#fff" stroke="#1261a0" stroke-width="1">
        <rect width="34" height="34" rx="5" stroke="none"/>
        <rect x="0.5" y="0.5" width="33" height="33" rx="4.5" fill="none"/>
      </g>
    </g>
    <g id="iconfinder_user-alt_285645" transform="translate(1513.5 489.286)">
      <path id="Path_464" data-name="Path 464" d="M8.41,1041.1a9.094,9.094,0,0,0-5.347,7.3,1.952,1.952,0,0,0,1.939,2H19.01a1.952,1.952,0,0,0,1.939-2,9.1,9.1,0,0,0-5.347-7.3,4.1,4.1,0,0,1-3.6,2.3A4.1,4.1,0,0,1,8.41,1041.1Z" transform="translate(-3.063 -1030.393)" fill="#1261a0"/>
      <path id="Path_465" data-name="Path 465" d="M17.006,4a5,5,0,1,1-5-5A5,5,0,0,1,17.006,4Z" transform="translate(-3.06 1)" fill="#1261a0"/>
      <path id="Path_466" data-name="Path 466" d="M12.006,11a9,9,0,0,0-8.943,8.005,1.949,1.949,0,0,0,1.939,2H19.01a1.949,1.949,0,0,0,1.939-2A9,9,0,0,0,12.006,11Z" transform="translate(-3.063 -1.994)" fill="#1261a0"/>
    </g>
  </g>
</svg>
