<svg xmlns="http://www.w3.org/2000/svg" width="12" height="16" viewBox="0 0 12 16">
  <g id="Group_7" data-name="Group 7" transform="translate(-401 -193)">
    <path id="Polygon_3" data-name="Polygon 3" d="M5.544.531a.6.6,0,0,1,.911,0l4.7,5.478A.6.6,0,0,1,10.7,7H1.3a.6.6,0,0,1-.456-.99Z" transform="translate(401 193)" fill="#1261a0"/>
    <path id="Polygon_4" data-name="Polygon 4" d="M5.544.531a.6.6,0,0,1,.911,0l4.7,5.478A.6.6,0,0,1,10.7,7H1.3a.6.6,0,0,1-.456-.99Z" transform="translate(413 209) rotate(180)" fill="#1261a0"/>
  </g>
</svg>
